<svg version="1.1" id="Layer_1" xmlns="http://www.w3.org/2000/svg" xmlns:xlink="http://www.w3.org/1999/xlink" x="0px" y="0px"
	 width="100%" viewBox="0 0 428 926" enable-background="new 0 0 428 926" xml:space="preserve">
<path fill="#FFFFFF" opacity="1.000000" stroke="none" 
	d="
M429.000000,392.000000 
	C429.000000,570.285889 429.000000,748.571838 429.000000,926.928833 
	C286.418732,926.928833 143.837433,926.928833 1.000000,926.928833 
	C1.000000,715.308472 1.000000,503.616882 1.362645,291.349426 
	C28.124033,303.410400 54.955894,314.934143 83.040672,323.405609 
	C117.704773,333.861633 152.784500,340.909851 189.243484,336.974976 
	C210.523148,334.678345 229.990692,327.722351 246.637100,313.777924 
	C256.368591,305.626007 263.223053,295.254700 269.869751,285.008423 
	C282.522034,314.456146 299.558533,340.454620 323.224579,361.723511 
	C346.061737,382.247467 372.672638,393.909088 403.695404,393.987427 
	C412.128540,394.008728 420.565033,392.698914 429.000000,392.000000 
z"/>
<path fill="#3A434D" opacity="1.000000" stroke="none" 
	d="
M269.790436,284.624115 
	C263.223053,295.254700 256.368591,305.626007 246.637100,313.777924 
	C229.990692,327.722351 210.523148,334.678345 189.243484,336.974976 
	C152.784500,340.909851 117.704773,333.861633 83.040672,323.405609 
	C54.955894,314.934143 28.124033,303.410400 1.362645,290.886780 
	C1.000000,251.645767 1.000000,212.291550 1.414485,172.440643 
	C7.407541,172.777023 12.960900,173.893845 18.569216,174.392151 
	C38.786507,176.188553 56.325077,170.202316 70.674553,155.655899 
	C80.484329,145.711472 86.461525,133.491180 90.623848,120.366760 
	C94.900841,106.880753 102.258873,95.260735 112.232109,85.508003 
	C142.901703,55.516453 181.236694,42.370716 222.738846,37.932598 
	C244.712967,35.582748 265.477539,31.140396 283.265228,17.607487 
	C289.466003,12.889900 294.456665,6.581746 300.000000,1.000000 
	C342.926117,1.000000 385.852203,1.000000 429.000000,1.000000 
	C429.000000,42.687298 429.000000,84.374992 428.658875,126.620911 
	C420.347137,129.927216 412.518005,133.226196 404.378510,135.316956 
	C382.590942,140.913467 364.628754,152.685913 348.969269,168.379532 
	C324.669525,192.732208 306.219757,221.404984 288.703552,250.716095 
	C282.067535,261.820587 276.075836,273.310089 269.790436,284.624115 
z"/>
<path fill="#59BEE6" opacity="1.000000" stroke="none" 
	d="
M269.869751,285.008423 
	C276.075836,273.310089 282.067535,261.820587 288.703552,250.716095 
	C306.219757,221.404984 324.669525,192.732208 348.969269,168.379532 
	C364.628754,152.685913 382.590942,140.913467 404.378510,135.316956 
	C412.518005,133.226196 420.347137,129.927216 428.658875,127.089569 
	C429.000000,215.020889 429.000000,303.041779 429.000000,391.531342 
	C420.565033,392.698914 412.128540,394.008728 403.695404,393.987427 
	C372.672638,393.909088 346.061737,382.247467 323.224579,361.723511 
	C299.558533,340.454620 282.522034,314.456146 269.869751,285.008423 
z"/>
<path fill="#F4AC47" opacity="1.000000" stroke="none" 
	d="
M299.531342,1.000000 
	C294.456665,6.581746 289.466003,12.889900 283.265228,17.607487 
	C265.477539,31.140396 244.712967,35.582748 222.738846,37.932598 
	C181.236694,42.370716 142.901703,55.516453 112.232109,85.508003 
	C102.258873,95.260735 94.900841,106.880753 90.623848,120.366760 
	C86.461525,133.491180 80.484329,145.711472 70.674553,155.655899 
	C56.325077,170.202316 38.786507,176.188553 18.569216,174.392151 
	C12.960900,173.893845 7.407541,172.777023 1.414485,171.971985 
	C1.000000,115.053093 1.000000,58.106186 1.000000,1.000000 
	C100.354172,1.000000 199.708420,1.000000 299.531342,1.000000 
z"/>
</svg>