<?xml version="1.0" encoding="utf-8"?>
<!-- Svg Vector Icons : http://www.onlinewebfonts.com/icon -->
<!DOCTYPE svg PUBLIC "-//W3C//DTD SVG 1.1//EN" "http://www.w3.org/Graphics/SVG/1.1/DTD/svg11.dtd">
<svg version="1.1" xmlns="http://www.w3.org/2000/svg" xmlns:xlink="http://www.w3.org/1999/xlink" x="0px" y="0px" viewBox="0 0 1000 1000" enable-background="new 0 0 1000 1000" xml:space="preserve">
<metadata> Svg Vector Icons : http://www.onlinewebfonts.com/icon </metadata>
<g><g><g><g><path d="M689,10h-25.9c-91.7,36.1-163.8,92.2-168.2,217C620.1,242.6,687.9,142.7,689,10z"/><path d="M333.1,990h51.8c71.2-53.8,197.2-42.8,271.7,0h38.8c74.5-32.7,194.1-180.2,194.1-263.1C736,695.6,718.2,400.3,863.6,345.4l0,0c-40.9-60.5-96.8-99.4-184.5-99.5l0,0c-7.3,0-14.8,0.3-22.5,0.9l0,0c-53.8,3.8-107.4,46-155.3,46l0,0c-53.6,0-98.8-44.1-148.8-46l0,0C-35,231.6,107.1,857.5,333.1,990z"/></g></g></g><g></g><g></g><g></g><g></g><g></g><g></g><g></g><g></g><g></g><g></g><g></g><g></g><g></g><g></g><g></g></g>
</svg>